<?xml version="1.0" encoding="iso-8859-1"?>
<!-- Generator: Adobe Illustrator 19.0.0, SVG Export Plug-In . SVG Version: 6.00 Build 0)  -->
<svg version="1.1" id="Layer_1" xmlns="http://www.w3.org/2000/svg" xmlns:xlink="http://www.w3.org/1999/xlink" x="0px" y="0px"
	 viewBox="0 0 356.923 356.923" style="enable-background:new 0 0 356.923 356.923;" xml:space="preserve">
<circle style="fill:#16C6CC;" cx="178.462" cy="178.462" r="178.462"/>
<rect x="175.237" y="248.345" style="fill:#242D3C;" width="6.469" height="16.598"/>
<path style="fill:#FFFFFF;" d="M178.462,260.281c-8.332,0-15.092,6.757-15.092,15.092s6.759,15.092,15.092,15.092
	c8.337,0,15.092-6.757,15.092-15.092S186.799,260.281,178.462,260.281z M178.462,283.998c-4.761,0-8.625-3.862-8.625-8.625
	c0-4.763,3.865-8.623,8.625-8.623c4.766,0,8.625,3.86,8.625,8.623C187.087,280.135,183.227,283.998,178.462,283.998z"/>
<rect x="43.175" y="39.973" style="fill:#F2F2F2;" width="270.572" height="198.4"/>
<rect x="40.094" y="15.934" style="fill:#3E4959;" width="276.751" height="24.042"/>
<g>
	<rect x="34.462" y="14.993" style="fill:#242D3C;" width="7.212" height="25.922"/>
	<rect x="315.249" y="14.993" style="fill:#242D3C;" width="7.205" height="25.922"/>
</g>
<rect x="40.094" y="238.375" style="fill:#3E4959;" width="276.751" height="9.957"/>
<g>
	<rect x="34.462" y="237.662" style="fill:#242D3C;" width="7.212" height="11.404"/>
	<rect x="315.249" y="237.662" style="fill:#242D3C;" width="7.205" height="11.404"/>
</g>
<polygon style="fill:#FFD55C;" points="107.234,95.941 67.333,181.211 147.141,181.211 "/>
<polygon style="fill:#FF6D3B;" points="207.254,63.877 147.237,181.211 267.286,181.211 "/>
<polygon style="fill:#21D8DE;" points="246.011,95.941 202.42,181.211 289.63,181.211 "/>
<polygon style="fill:#06B2B8;" points="202.42,181.211 267.286,181.211 234.841,117.797 "/>
<polygon style="fill:#3E4959;" points="154.523,119.089 122.75,181.211 186.311,181.211 "/>
<g>
	<polygon style="fill:#242D3C;" points="122.75,181.211 147.141,181.211 135.488,156.305 	"/>
	<polygon style="fill:#242D3C;" points="147.237,181.211 186.311,181.211 166.772,143.023 	"/>
</g>
<rect x="67.333" y="212.578" style="fill:#FFD55C;" width="39.975" height="6.132"/>
<rect x="128.098" y="212.578" style="fill:#3E4959;" width="39.978" height="6.132"/>
<rect x="188.874" y="212.578" style="fill:#FF6D3B;" width="39.961" height="6.132"/>
<rect x="249.649" y="212.578" style="fill:#21D8DE;" width="39.975" height="6.132"/>
<g>
</g>
<g>
</g>
<g>
</g>
<g>
</g>
<g>
</g>
<g>
</g>
<g>
</g>
<g>
</g>
<g>
</g>
<g>
</g>
<g>
</g>
<g>
</g>
<g>
</g>
<g>
</g>
<g>
</g>
</svg>
